<?xml version="1.0" encoding="UTF-8" standalone="no"?>
<svg
   version="1.1"
   width="1328.3657"
   height="480"
   id="svg82"
   sodipodi:docname="collapsed-space-full.svg"
   inkscape:version="1.3.2 (091e20ef0f, 2023-11-25)"
   xmlns:inkscape="http://www.inkscape.org/namespaces/inkscape"
   xmlns:sodipodi="http://sodipodi.sourceforge.net/DTD/sodipodi-0.dtd"
   xmlns="http://www.w3.org/2000/svg"
   xmlns:svg="http://www.w3.org/2000/svg">
  <defs
     id="defs82" />
  <sodipodi:namedview
     id="namedview82"
     pagecolor="#505050"
     bordercolor="#eeeeee"
     borderopacity="1"
     inkscape:showpageshadow="0"
     inkscape:pageopacity="0"
     inkscape:pagecheckerboard="0"
     inkscape:deskcolor="#505050"
     inkscape:zoom="0.56973672"
     inkscape:cx="677.50592"
     inkscape:cy="364.20331"
     inkscape:window-width="1280"
     inkscape:window-height="731"
     inkscape:window-x="0"
     inkscape:window-y="0"
     inkscape:window-maximized="1"
     inkscape:current-layer="g82" />
  <g
     id="g82"
     transform="matrix(0.85714286,0,0,0.85714286,-213.42592,-236.39012)">
    <path
       d="m 669.66822,345.20967 c -86.57483,-31.08406 -195.95543,-23.80201 -251.12754,17.74178 -153.11452,115.29296 -91.60174,274.89528 116.08863,308.58461 -52.4221,0.18981 -76.31042,10.6746 -187.07257,-34.34167 21.6079,83.06247 107.16517,124.91419 131.10735,135.1553 101.60631,39.80141 175.97477,-19.17525 199.16309,-41.35396 55.21873,-51.62123 70.41306,-131.02116 35.52128,-205.78245 -37.00103,-76.28004 -112.69892,-92.61283 -163.5469,-96.53391 l -0.0793,-0.27013 c 72.74001,0.83786 230.44037,48.00488 258.15304,115.82854 4.75802,32.29378 -6.78277,79.9859 -12.91023,100.01896 -11.88643,39.94914 -31.34532,73.77323 -75.17083,116.35351 -63.75764,59.79144 -124.29233,73.98929 -189.26657,75.13357 -15.6526,0.27567 -31.30091,-0.71737 -46.88072,-3.19679 -23.96036,-3.81313 -48.10549,-11.92359 -72.19934,-22.43629 -30.07258,-13.12136 -79.11861,-46.56539 -114.2378,-96.40852 -29.19289,-41.43218 -47.59693,-95.50539 -48.1925,-146.6219 -0.90962,-78.06992 28.54594,-169.97501 96.55249,-225.0259 16.16851,-13.08831 49.76513,-39.24538 97.18159,-55.03266 116.7278,-38.86444 208.42381,33.64214 226.91679,58.18791 z"
       fill="#9e7d35"
       id="path2"
       inkscape:label="ring"
       sodipodi:nodetypes="csccccccccccsssssssc"
       style="fill:#61afef;fill-opacity:1;stroke-width:1.00471" />
    <circle
       style="fill:#111;stroke-width:1.20582"
       id="path82"
       cx="534.66327"
       cy="545.30493"
       r="117.5"
       inkscape:label="center" />
    <g
       id="text1"
       style="font-weight:900;font-size:112px;font-family:'Red Hat Display';-inkscape-font-specification:'Red Hat Display Heavy';fill:#042235;stroke-width:1.16667"
       aria-label="Collapsed&#10;Space"
       transform="matrix(1.8440957,0,0,1.8440957,-908.12067,-660.34492)">
      <path
         style="font-weight:bold;font-family:'Avenir Next LT Pro';-inkscape-font-specification:'Avenir Next LT Pro Bold';fill:#61afef"
         d="m 1008.7737,626.85554 -13.32798,-12.544 c -3.36,4.704 -9.296,8.064 -16.8,8.064 -13.216,0 -22.512,-9.856 -22.512,-24.304 0,-14 9.52,-24.304 22.848,-24.304 6.048,0 12.432,2.352 16.016,7.28 l 12.99198,-12.992 c -6.608,-7.616 -18.59198,-11.648 -29.67998,-11.648 -24.192,0 -43.008,16.24 -43.008,41.664 0,24.864 18.256,41.888 42.672,41.888 13.328,0 23.85598,-5.04 30.79998,-13.104 z m 64.96,-17.136 c 0,-18.256 -14.112,-29.456 -31.024,-29.456 -16.8,0 -30.912,11.2 -30.912,29.456 0,18.256 14.112,29.904 30.912,29.904 16.912,0 31.024,-11.648 31.024,-29.904 z m -17.696,0 c 0,7.168 -4.592,14.448 -13.216,14.448 -8.624,0 -13.216,-7.28 -13.216,-14.448 0,-7.168 4.48,-14.224 13.104,-14.224 8.624,0 13.328,7.056 13.328,14.224 z m 48.16,28.112 v -84.672 h -18.592 v 84.672 z m 33.3761,0 v -84.672 h -18.592 v 84.672 z m 47.488,-22.4 c 0,6.944 -4.144,11.424 -11.536,11.424 -3.696,0 -7.952,-1.456 -7.952,-5.712 0,-6.608 9.072,-7.616 17.136,-7.616 h 2.352 z m -24.416,-15.792 c 3.36,-3.136 8.512,-5.712 13.776,-5.712 5.712,0 10.08,2.576 10.08,8.064 v 0.896 c -16.24,0 -35.84,2.688 -35.84,18.816 0,13.104 11.424,17.472 20.272,17.472 6.608,0 12.992,-2.688 15.792,-7.28 h 0.336 v 5.936 h 16.8 v -28.112 c 0,-20.272 -6.944,-29.456 -25.648,-29.456 -9.072,0 -18.368,3.248 -24.864,9.408 z m 116.928,10.08 c 0,-15.568 -10.192,-29.232 -26.432,-29.232 -8.176,0 -14.448,3.92 -17.808,8.4 h -0.336 v -6.832 h -17.472 v 82.656 h 18.368 v -33.04 h 0.224 c 3.472,4.816 10.08,7.728 16.912,7.728 16.8,0 26.544,-14.112 26.544,-29.68 z m -17.808,0 c 0,7.28 -4.368,14.448 -13.104,14.448 -8.288,0 -13.44,-7.056 -13.44,-14.336 0,-7.056 5.152,-14.336 13.44,-14.336 8.736,0 13.104,7.056 13.104,14.224 z m 72.2399,-21.616 c -5.488,-5.152 -14.112,-7.84 -22.4,-7.84 -10.64,0 -23.184,5.376 -23.184,18.704 0,10.528 8.512,14.448 16.24,16.24 7.616,1.792 11.088,2.912 11.088,6.384 0,3.584 -3.584,4.816 -6.608,4.816 -5.376,0 -10.416,-2.688 -13.664,-6.272 l -10.304,10.864 c 5.824,5.6 15.232,8.624 24.304,8.624 11.424,0 23.856,-4.928 23.856,-19.04 0,-10.864 -9.296,-15.12 -17.808,-17.024 -7.168,-1.568 -10.192,-2.464 -10.192,-5.6 0,-3.248 3.472,-4.48 6.944,-4.48 4.48,0 8.736,2.24 11.648,5.04 z m 24.7521,15.456 c 0.448,-5.712 5.6,-10.64 12.656,-10.64 7.28,0 10.976,4.816 10.976,10.64 z m 40.544,7.056 c 0,-19.04 -11.536,-30.352 -28,-30.352 -16.912,0 -30.128,11.648 -30.128,29.904 0,18.816 13.888,29.456 30.688,29.456 11.312,0 20.048,-4.256 25.312,-11.872 l -12.768,-8.064 c -2.464,3.36 -6.496,5.824 -12.32,5.824 -6.608,0 -12.768,-4.368 -13.328,-10.528 h 40.432 c 0.112,-1.344 0.112,-2.912 0.112,-4.368 z m 70.56,27.216 v -84.672 h -18.368 v 34.832 h -0.224 c -3.136,-3.696 -8.848,-7.504 -17.024,-7.504 -16.24,0 -26.32,13.664 -26.32,29.232 0,15.568 9.744,29.68 26.544,29.68 7.392,0 14.672,-3.248 18.256,-8.848 h 0.224 v 7.28 z m -17.584,-28 c 0,7.28 -5.152,14.336 -13.44,14.336 -8.736,0 -13.216,-7.168 -13.216,-14.448 0,-7.168 4.48,-14.224 13.216,-14.224 8.288,0 13.44,7.28 13.44,14.336 z"
         id="path3" />
      <path
         style="font-weight:bold;font-family:'Avenir Next LT Pro';-inkscape-font-specification:'Avenir Next LT Pro Bold';fill:#61afef"
         d="m 994.95889,667.3407 c -6.944,-6.384 -17.024,-9.744 -25.984,-9.744 -14.784,0 -30.688,7.28 -30.688,24.864 0,14.336 10.192,19.488 20.272,22.736 10.416,3.36 16.464,5.264 16.464,11.312 0,6.384 -5.152,8.624 -10.976,8.624 -6.272,0 -13.328,-3.584 -17.136,-8.4 l -12.544,12.768 c 6.944,7.28 18.368,11.424 29.68,11.424 15.68,0 30.352,-8.176 30.352,-26.432 0,-15.792 -13.888,-20.384 -24.64,-23.856 -7.504,-2.352 -12.208,-4.032 -12.208,-9.296 0,-6.272 6.16,-7.952 11.088,-7.952 4.928,0 10.864,2.688 14.112,6.832 z m 73.13601,43.456 c 0,-15.568 -10.192,-29.232 -26.432,-29.232 -8.176,0 -14.448,3.92 -17.808,8.4 h -0.336 v -6.832 h -17.472 v 82.656 h 18.368 v -33.04 h 0.224 c 3.472,4.816 10.08,7.728 16.912,7.728 16.8,0 26.544,-14.112 26.544,-29.68 z m -17.808,0 c 0,7.28 -4.368,14.448 -13.104,14.448 -8.288,0 -13.44,-7.056 -13.44,-14.336 0,-7.056 5.152,-14.336 13.44,-14.336 8.736,0 13.104,7.056 13.104,14.224 z m 62.2719,5.712 c 0,6.944 -4.144,11.424 -11.536,11.424 -3.696,0 -7.952,-1.456 -7.952,-5.712 0,-6.608 9.072,-7.616 17.136,-7.616 h 2.352 z m -24.416,-15.792 c 3.36,-3.136 8.512,-5.712 13.776,-5.712 5.712,0 10.08,2.576 10.08,8.064 v 0.896 c -16.24,0 -35.84,2.688 -35.84,18.816 0,13.104 11.424,17.472 20.272,17.472 6.608,0 12.992,-2.688 15.792,-7.28 h 0.336 v 5.936 h 16.8 v -28.112 c 0,-20.272 -6.944,-29.456 -25.648,-29.456 -9.072,0 -18.368,3.248 -24.864,9.408 z m 103.936,-11.872 c -4.368,-4.48 -12.768,-7.504 -20.72,-7.504 -17.36,0 -31.136,11.536 -31.136,29.68 0,18.48 13.664,29.68 31.248,29.68 8.176,0 16.016,-2.688 20.608,-7.168 l -10.192,-12.432 c -2.24,2.688 -6.272,4.144 -9.968,4.144 -8.064,0 -13.104,-6.496 -13.104,-14.224 0,-7.728 5.152,-14.336 12.88,-14.336 3.696,0 7.728,1.792 9.744,4.48 z m 22.0641,15.792 c 0.448,-5.712 5.6,-10.64 12.656,-10.64 7.28,0 10.976,4.816 10.976,10.64 z m 40.544,7.056 c 0,-19.04 -11.536,-30.352 -28,-30.352 -16.912,0 -30.128,11.648 -30.128,29.904 0,18.816 13.888,29.456 30.688,29.456 11.312,0 20.048,-4.256 25.312,-11.872 l -12.768,-8.064 c -2.464,3.36 -6.496,5.824 -12.32,5.824 -6.608,0 -12.768,-4.368 -13.328,-10.528 h 40.432 c 0.112,-1.344 0.112,-2.912 0.112,-4.368 z"
         id="path4" />
    </g>
  </g>
</svg>
