<?xml version="1.0" encoding="UTF-8" standalone="no"?>
<svg
   version="1.0"
   width="1024pt"
   height="1024pt"
   viewBox="0 0 1024 1024"
   preserveAspectRatio="xMidYMid meet"
   id="svg5"
   sodipodi:docname="favicon.svg"
   inkscape:version="1.3.2 (091e20ef0f, 2023-11-25)"
   xmlns:inkscape="http://www.inkscape.org/namespaces/inkscape"
   xmlns:sodipodi="http://sodipodi.sourceforge.net/DTD/sodipodi-0.dtd"
   xmlns="http://www.w3.org/2000/svg"
   xmlns:svg="http://www.w3.org/2000/svg">
  <defs
     id="defs5" />
  <sodipodi:namedview
     id="namedview5"
     pagecolor="#505050"
     bordercolor="#eeeeee"
     borderopacity="1"
     inkscape:showpageshadow="0"
     inkscape:pageopacity="0"
     inkscape:pagecheckerboard="0"
     inkscape:deskcolor="#505050"
     inkscape:document-units="pt"
     inkscape:zoom="0.35375977"
     inkscape:cx="682.66666"
     inkscape:cy="685.49344"
     inkscape:window-width="1280"
     inkscape:window-height="731"
     inkscape:window-x="0"
     inkscape:window-y="0"
     inkscape:window-maximized="1"
     inkscape:current-layer="svg5" />
  <g
     transform="matrix(0.18586192,0,0,-0.18586192,-463.89087,1418.4658)"
     fill="#6610f2"
     stroke="none"
     id="g5"
     style="fill:#41ffc5;fill-opacity:1">
    <path
       d="m 5045,7289 c -581,-56 -1156,-317 -1535,-699 -299,-300 -494,-633 -614,-1048 -128,-440 -124,-929 9,-1342 153,-474 431,-886 790,-1174 435,-349 881,-527 1412,-565 563,-40 1182,159 1661,532 256,199 453,432 631,749 247,437 344,944 281,1458 -65,524 -355,1084 -740,1428 -298,267 -683,484 -1021,576 -303,82 -598,111 -874,85 z m 405,-120 c 382,-35 793,-188 1043,-388 74,-58 202,-188 250,-251 116,-153 218,-366 272,-566 15,-54 32,-105 37,-111 14,-18 53,-16 68,2 34,41 -32,289 -131,490 l -49,100 68,-71 c 166,-175 273,-387 318,-632 22,-120 29,-393 15,-522 -57,-499 -324,-945 -721,-1205 -184,-120 -392,-206 -585,-240 -118,-21 -359,-21 -480,0 -144,25 -327,93 -447,166 -31,18 -43,21 -65,13 -35,-12 -43,-56 -16,-86 23,-27 235,-129 333,-162 252,-83 573,-87 835,-11 309,90 547,235 775,472 217,225 353,471 435,786 47,184 58,268 59,454 1,89 2,160 4,158 11,-11 75,-268 87,-354 44,-294 21,-621 -61,-883 -139,-439 -503,-784 -1001,-947 -182,-60 -286,-75 -508,-75 -212,-1 -335,18 -508,75 -121,41 -303,127 -400,191 -69,45 -80,50 -102,40 -13,-6 -27,-23 -31,-37 -9,-35 16,-60 120,-124 417,-255 873,-329 1329,-214 270,67 533,194 720,347 32,26 61,46 63,43 8,-7 -78,-131 -147,-212 -191,-225 -430,-413 -674,-531 -316,-153 -708,-185 -1080,-89 -155,40 -234,69 -366,135 -172,86 -271,160 -429,319 -153,153 -256,292 -335,450 -51,103 -111,288 -131,406 -24,137 -24,372 -1,488 68,342 269,632 563,812 44,27 87,55 97,63 39,34 1,89 -54,78 -76,-15 -262,-149 -380,-273 -166,-175 -275,-384 -331,-633 -33,-148 -33,-435 0,-588 87,-405 337,-797 667,-1048 288,-220 656,-355 1010,-371 76,-4 121,-9 109,-14 -11,-4 -90,-15 -175,-24 -178,-21 -437,-16 -604,10 -217,34 -494,122 -670,213 -99,52 -252,170 -330,255 -271,295 -413,750 -377,1201 30,364 146,660 361,918 163,194 323,315 541,406 167,69 290,91 499,92 111,0 138,3 153,17 24,21 23,46 -3,69 -18,16 -40,19 -152,22 -263,7 -512,-59 -734,-193 -223,-135 -433,-355 -562,-589 -208,-376 -270,-814 -179,-1261 27,-134 88,-318 141,-425 l 43,-88 -35,29 c -73,58 -229,251 -286,353 -196,351 -227,862 -78,1289 152,439 490,808 884,965 387,154 781,148 1136,-18 134,-62 247,-141 385,-267 51,-47 68,-52 92,-27 41,40 1,100 -142,215 -257,207 -527,305 -867,316 -462,15 -864,-150 -1191,-489 -329,-340 -501,-774 -505,-1275 l -1,-108 -34,102 c -65,197 -95,468 -75,691 24,275 77,468 184,675 78,151 161,260 285,379 154,145 319,249 527,331 321,127 713,147 1070,56 114,-29 261,-86 329,-127 63,-38 80,-37 103,8 20,40 1,62 -93,112 -108,57 -291,119 -439,148 -235,47 -562,37 -798,-25 -261,-68 -408,-141 -730,-365 -18,-12 -17,-8 7,25 174,236 418,458 652,593 367,212 774,264 1209,155 207,-52 348,-112 515,-220 351,-228 570,-556 670,-1008 32,-144 33,-385 2,-543 -61,-308 -171,-517 -389,-743 -67,-69 -113,-124 -113,-136 0,-31 34,-57 66,-49 15,4 73,54 133,114 255,257 400,574 432,946 33,388 -84,803 -312,1110 -289,389 -711,625 -1237,691 -29,4 -51,9 -48,12 4,5 197,17 336,21 25,1 97,-3 160,-9 z"
       id="path1"
       style="fill:#41ffc5;fill-opacity:1" />
    <path
       d="m 5872,5818 c -20,-20 -13,-57 19,-104 72,-105 130,-270 150,-425 11,-91 20,-109 54,-109 41,0 48,22 42,133 -6,121 -39,243 -96,355 -59,116 -95,162 -129,162 -15,0 -33,-5 -40,-12 z"
       id="path2"
       style="fill:#41ffc5;fill-opacity:1" />
    <path
       d="m 5105,5540 c -143,-30 -259,-93 -366,-199 -72,-72 -94,-101 -133,-181 -63,-129 -80,-201 -79,-335 0,-136 18,-209 80,-335 81,-163 227,-291 402,-354 207,-75 426,-53 619,62 79,47 209,179 260,265 100,167 125,409 61,600 -78,235 -303,428 -561,481 -99,20 -171,19 -283,-4 z"
       id="path3"
       style="fill:#41ffc5;fill-opacity:1"
       inkscape:label="center"
       transform="translate(0,1.3450845e-4)" />
    <path
       d="m 6457,4513 c -201,-252 -538,-455 -833,-503 -99,-16 -114,-24 -114,-59 0,-48 26,-59 112,-49 320,37 666,235 895,511 51,62 73,97 73,116 0,34 -17,51 -52,51 -22,0 -38,-14 -81,-67 z"
       id="path4"
       style="fill:#41ffc5;fill-opacity:1" />
    <path
       d="m 4452,4278 c -21,-21 -13,-62 24,-124 63,-106 100,-127 140,-83 18,20 18,21 -10,73 -69,128 -118,170 -154,134 z"
       id="path5"
       style="fill:#41ffc5;fill-opacity:1" />
  </g>
</svg>
