<?xml version="1.0" encoding="UTF-8" standalone="no"?>
<!-- Created with Inkscape (http://www.inkscape.org/) -->

<svg
   width="292.2485mm"
   height="90mm"
   viewBox="0 0 292.24851 90"
   version="1.1"
   id="svg1"
   inkscape:version="1.3.2 (091e20ef0f, 2023-11-25)"
   sodipodi:docname="logo.svg"
   xmlns:inkscape="http://www.inkscape.org/namespaces/inkscape"
   xmlns:sodipodi="http://sodipodi.sourceforge.net/DTD/sodipodi-0.dtd"
   xmlns="http://www.w3.org/2000/svg"
   xmlns:svg="http://www.w3.org/2000/svg">
  <sodipodi:namedview
     id="namedview1"
     pagecolor="#505050"
     bordercolor="#eeeeee"
     borderopacity="1"
     inkscape:showpageshadow="0"
     inkscape:pageopacity="0"
     inkscape:pagecheckerboard="0"
     inkscape:deskcolor="#505050"
     inkscape:document-units="mm"
     showguides="true"
     inkscape:zoom="0.43351266"
     inkscape:cx="592.83159"
     inkscape:cy="151.09132"
     inkscape:window-width="1280"
     inkscape:window-height="731"
     inkscape:window-x="0"
     inkscape:window-y="0"
     inkscape:window-maximized="1"
     inkscape:current-layer="layer1" />
  <defs
     id="defs1" />
  <g
     inkscape:label="Layer 1"
     inkscape:groupmode="layer"
     id="layer1"
     transform="matrix(0.91000164,0,0,0.91000164,-14.882334,-82.526014)"
     style="fill:#00efff;fill-opacity:1">
    <g
       transform="matrix(0.02042435,0,0,-0.02042435,-40.886371,239.74967)"
       fill="#6610f2"
       stroke="none"
       id="g5"
       style="fill:#00efff;fill-opacity:1">
      <path
         d="m 5045,7289 c -581,-56 -1156,-317 -1535,-699 -299,-300 -494,-633 -614,-1048 -128,-440 -124,-929 9,-1342 153,-474 431,-886 790,-1174 435,-349 881,-527 1412,-565 563,-40 1182,159 1661,532 256,199 453,432 631,749 247,437 344,944 281,1458 -65,524 -355,1084 -740,1428 -298,267 -683,484 -1021,576 -303,82 -598,111 -874,85 z m 405,-120 c 382,-35 793,-188 1043,-388 74,-58 202,-188 250,-251 116,-153 218,-366 272,-566 15,-54 32,-105 37,-111 14,-18 53,-16 68,2 34,41 -32,289 -131,490 l -49,100 68,-71 c 166,-175 273,-387 318,-632 22,-120 29,-393 15,-522 -57,-499 -324,-945 -721,-1205 -184,-120 -392,-206 -585,-240 -118,-21 -359,-21 -480,0 -144,25 -327,93 -447,166 -31,18 -43,21 -65,13 -35,-12 -43,-56 -16,-86 23,-27 235,-129 333,-162 252,-83 573,-87 835,-11 309,90 547,235 775,472 217,225 353,471 435,786 47,184 58,268 59,454 1,89 2,160 4,158 11,-11 75,-268 87,-354 44,-294 21,-621 -61,-883 -139,-439 -503,-784 -1001,-947 -182,-60 -286,-75 -508,-75 -212,-1 -335,18 -508,75 -121,41 -303,127 -400,191 -69,45 -80,50 -102,40 -13,-6 -27,-23 -31,-37 -9,-35 16,-60 120,-124 417,-255 873,-329 1329,-214 270,67 533,194 720,347 32,26 61,46 63,43 8,-7 -78,-131 -147,-212 -191,-225 -430,-413 -674,-531 -316,-153 -708,-185 -1080,-89 -155,40 -234,69 -366,135 -172,86 -271,160 -429,319 -153,153 -256,292 -335,450 -51,103 -111,288 -131,406 -24,137 -24,372 -1,488 68,342 269,632 563,812 44,27 87,55 97,63 39,34 1,89 -54,78 -76,-15 -262,-149 -380,-273 -166,-175 -275,-384 -331,-633 -33,-148 -33,-435 0,-588 87,-405 337,-797 667,-1048 288,-220 656,-355 1010,-371 76,-4 121,-9 109,-14 -11,-4 -90,-15 -175,-24 -178,-21 -437,-16 -604,10 -217,34 -494,122 -670,213 -99,52 -252,170 -330,255 -271,295 -413,750 -377,1201 30,364 146,660 361,918 163,194 323,315 541,406 167,69 290,91 499,92 111,0 138,3 153,17 24,21 23,46 -3,69 -18,16 -40,19 -152,22 -263,7 -512,-59 -734,-193 -223,-135 -433,-355 -562,-589 -208,-376 -270,-814 -179,-1261 27,-134 88,-318 141,-425 l 43,-88 -35,29 c -73,58 -229,251 -286,353 -196,351 -227,862 -78,1289 152,439 490,808 884,965 387,154 781,148 1136,-18 134,-62 247,-141 385,-267 51,-47 68,-52 92,-27 41,40 1,100 -142,215 -257,207 -527,305 -867,316 -462,15 -864,-150 -1191,-489 -329,-340 -501,-774 -505,-1275 l -1,-108 -34,102 c -65,197 -95,468 -75,691 24,275 77,468 184,675 78,151 161,260 285,379 154,145 319,249 527,331 321,127 713,147 1070,56 114,-29 261,-86 329,-127 63,-38 80,-37 103,8 20,40 1,62 -93,112 -108,57 -291,119 -439,148 -235,47 -562,37 -798,-25 -261,-68 -408,-141 -730,-365 -18,-12 -17,-8 7,25 174,236 418,458 652,593 367,212 774,264 1209,155 207,-52 348,-112 515,-220 351,-228 570,-556 670,-1008 32,-144 33,-385 2,-543 -61,-308 -171,-517 -389,-743 -67,-69 -113,-124 -113,-136 0,-31 34,-57 66,-49 15,4 73,54 133,114 255,257 400,574 432,946 33,388 -84,803 -312,1110 -289,389 -711,625 -1237,691 -29,4 -51,9 -48,12 4,5 197,17 336,21 25,1 97,-3 160,-9 z"
         id="path1"
         style="fill:#00efff;fill-opacity:1" />
      <path
         d="m 5872,5818 c -20,-20 -13,-57 19,-104 72,-105 130,-270 150,-425 11,-91 20,-109 54,-109 41,0 48,22 42,133 -6,121 -39,243 -96,355 -59,116 -95,162 -129,162 -15,0 -33,-5 -40,-12 z"
         id="path2"
         style="fill:#00efff;fill-opacity:1" />
      <path
         d="m 5105,5540 c -143,-30 -259,-93 -366,-199 -72,-72 -94,-101 -133,-181 -63,-129 -80,-201 -79,-335 0,-136 18,-209 80,-335 81,-163 227,-291 402,-354 207,-75 426,-53 619,62 79,47 209,179 260,265 100,167 125,409 61,600 -78,235 -303,428 -561,481 -99,20 -171,19 -283,-4 z"
         id="path3"
         style="fill:#00efff;fill-opacity:1"
         inkscape:label="center"
         transform="translate(0,1.3450845e-4)" />
      <path
         d="m 6457,4513 c -201,-252 -538,-455 -833,-503 -99,-16 -114,-24 -114,-59 0,-48 26,-59 112,-49 320,37 666,235 895,511 51,62 73,97 73,116 0,34 -17,51 -52,51 -22,0 -38,-14 -81,-67 z"
         id="path4"
         style="fill:#00efff;fill-opacity:1" />
      <path
         d="m 4452,4278 c -21,-21 -13,-62 24,-124 63,-106 100,-127 140,-83 18,20 18,21 -10,73 -69,128 -118,170 -154,134 z"
         id="path5"
         style="fill:#00efff;fill-opacity:1" />
    </g>
    <g
       id="text1"
       style="font-size:25.4px;fill:#00efff;stroke-width:0.264583;fill-opacity:1"
       aria-label="Collapsed &#10;Space"
       transform="matrix(1.647609,0,0,1.647609,-69.223616,-92.488658)">
      <path
         style="font-weight:900;font-family:'Red Hat Display';-inkscape-font-specification:'Red Hat Display Heavy';fill:#00efff;fill-opacity:1"
         d="m 135.78636,132.26842 q -2.032,0 -3.7846,-0.6858 -1.7272,-0.7112 -3.0226,-1.9558 -1.2954,-1.2446 -2.032,-2.8956 -0.7112,-1.6764 -0.7112,-3.6068 0,-1.9558 0.7112,-3.6068 0.7366,-1.6764 2.032,-2.921 1.3208,-1.2446 3.048,-1.9304 1.7526,-0.7112 3.7592,-0.7112 1.4732,0 2.8956,0.4318 1.4224,0.4318 2.6162,1.2192 1.2192,0.762 2.032,1.8288 l -2.9464,2.8956 q -0.9398,-1.1938 -2.1082,-1.778 -1.143,-0.5842 -2.4892,-0.5842 -1.0668,0 -2.0066,0.4064 -0.9144,0.381 -1.6002,1.0668 -0.6858,0.6858 -1.0668,1.6256 -0.381,0.9398 -0.381,2.0574 0,1.0922 0.381,2.032 0.4064,0.9144 1.0922,1.6256 0.7112,0.6858 1.651,1.0668 0.9652,0.381 2.0828,0.381 1.2954,0 2.3876,-0.5588 1.1176,-0.5588 2.0066,-1.651 l 2.8702,2.8194 q -0.8128,1.0414 -2.0066,1.8288 -1.1938,0.762 -2.5908,1.1938 -1.397,0.4064 -2.8194,0.4064 z m 15.36696,0 q -2.0574,0 -3.7084,-0.9144 -1.651,-0.9398 -2.6162,-2.5146 -0.9652,-1.5748 -0.9652,-3.5306 0,-1.9558 0.9652,-3.5306 0.9652,-1.6002 2.6162,-2.5146 1.651,-0.9398 3.7084,-0.9398 2.0574,0 3.7084,0.9398 1.651,0.9144 2.6162,2.5146 0.9652,1.5748 0.9652,3.5306 0,1.9558 -0.9652,3.5306 -0.9652,1.5748 -2.6162,2.5146 -1.651,0.9144 -3.7084,0.9144 z m 0,-3.556 q 0.9398,0 1.6764,-0.4572 0.7366,-0.4572 1.1684,-1.2192 0.4318,-0.7874 0.4318,-1.7272 0,-0.9652 -0.4318,-1.7272 -0.4318,-0.7874 -1.1938,-1.2446 -0.7366,-0.4572 -1.651,-0.4572 -0.9144,0 -1.6764,0.4572 -0.7366,0.4572 -1.1684,1.2446 -0.4318,0.762 -0.4318,1.7272 0,0.9398 0.4318,1.7272 0.4318,0.762 1.1684,1.2192 0.762,0.4572 1.6764,0.4572 z m 9.22018,3.302 v -17.78 l 4.1148,-0.635 v 18.415 z m 6.65478,0 v -17.78 l 4.1148,-0.635 v 18.415 z m 10.94738,0.2286 q -1.4224,0 -2.54,-0.5334 -1.0922,-0.5334 -1.7272,-1.4732 -0.6096,-0.9398 -0.6096,-2.159 0,-1.9304 1.4478,-2.9718 1.4732,-1.0668 4.0894,-1.0668 1.5748,0 3.048,0.381 v -0.6604 q 0,-1.016 -0.6604,-1.4986 -0.635,-0.508 -1.905,-0.508 -0.7874,0 -1.778,0.254 -0.9652,0.254 -2.286,0.8128 l -1.4732,-3.0226 q 1.651,-0.7366 3.175,-1.0922 1.5494,-0.381 3.0988,-0.381 2.794,0 4.3434,1.3462 1.5494,1.3208 1.5494,3.7338 v 8.6106 h -4.064 v -0.8128 q -0.8128,0.5588 -1.7272,0.8128 -0.889,0.2286 -1.9812,0.2286 z m -0.9652,-4.2418 q 0,0.635 0.5588,0.9906 0.5588,0.3556 1.5494,0.3556 0.7366,0 1.3716,-0.1524 0.6604,-0.1524 1.1938,-0.4826 v -1.7272 q -0.5842,-0.1524 -1.1938,-0.2286 -0.6096,-0.0762 -1.2446,-0.0762 -1.0668,0 -1.651,0.3556 -0.5842,0.3302 -0.5842,0.9652 z m 11.17598,9.1948 v -18.6182 h 4.064 v 0.9906 q 1.6002,-1.1684 3.6068,-1.1684 1.9304,0 3.4798,0.9398 1.5494,0.9144 2.4638,2.4892 0.9144,1.5494 0.9144,3.4798 0,1.9304 -0.9398,3.5052 -0.9144,1.5494 -2.5146,2.4638 -1.5748,0.9144 -3.5306,0.9144 -0.9398,0 -1.8034,-0.2286 -0.8636,-0.2286 -1.6256,-0.6604 v 5.8928 z m 6.9596,-8.4836 q 1.016,0 1.8034,-0.4318 0.7874,-0.4572 1.2446,-1.2192 0.4826,-0.7874 0.4826,-1.7526 0,-0.9652 -0.4826,-1.7272 -0.4572,-0.7874 -1.27,-1.2192 -0.7874,-0.4572 -1.778,-0.4572 -0.8636,0 -1.5748,0.2794 -0.7112,0.254 -1.27,0.7874 v 4.699 q 0.5334,0.4826 1.27,0.762 0.7366,0.2794 1.5748,0.2794 z m 14.80821,3.556 q -1.905,0 -3.5306,-0.4318 -1.6256,-0.4572 -2.8194,-1.3208 l 1.9558,-2.7686 q 1.27,0.762 2.3114,1.1176 1.0414,0.3302 2.0574,0.3302 1.016,0 1.6002,-0.2794 0.6096,-0.3048 0.6096,-0.7874 0,-0.381 -0.3302,-0.6096 -0.3302,-0.254 -1.0414,-0.3556 l -2.667,-0.4064 q -2.0066,-0.3048 -3.0734,-1.3208 -1.0414,-1.0414 -1.0414,-2.6924 0,-1.3716 0.6858,-2.3368 0.7112,-0.9906 2.0066,-1.4986 1.2954,-0.5334 3.0988,-0.5334 1.4732,0 2.921,0.4064 1.4478,0.4064 2.6924,1.2192 l -1.9558,2.6416 q -1.0922,-0.635 -2.0828,-0.9144 -0.9906,-0.3048 -1.9812,-0.3048 -0.7874,0 -1.27,0.2794 -0.4826,0.254 -0.4826,0.6858 0,0.4064 0.3556,0.6604 0.3556,0.2286 1.2192,0.3556 l 2.667,0.4064 q 1.9812,0.2794 3.048,1.3208 1.0922,1.016 1.0922,2.5908 0,1.3208 -0.7874,2.3368 -0.7874,1.016 -2.159,1.6256 -1.3462,0.5842 -3.0988,0.5842 z m 14.4526,0 q -2.0574,0 -3.7338,-0.9144 -1.651,-0.9398 -2.6162,-2.5146 -0.9652,-1.5748 -0.9652,-3.5306 0,-1.9558 0.9144,-3.5306 0.9398,-1.5748 2.54,-2.4892 1.6002,-0.9398 3.556,-0.9398 1.9812,0 3.5052,0.9652 1.524,0.9398 2.3876,2.5908 0.889,1.651 0.889,3.7846 v 1.016 h -9.5758 q 0.2794,0.635 0.7366,1.1176 0.4826,0.4826 1.143,0.762 0.6604,0.254 1.4224,0.254 0.8382,0 1.524,-0.254 0.6858,-0.2794 1.1684,-0.762 l 2.7178,2.413 q -1.27,1.0668 -2.6162,1.5494 -1.3208,0.4826 -2.9972,0.4826 z m -3.175,-8.4328 h 5.6134 q -0.2032,-0.6604 -0.635,-1.1176 -0.4064,-0.4826 -0.9652,-0.7366 -0.5588,-0.2794 -1.2192,-0.2794 -0.6858,0 -1.2446,0.254 -0.5588,0.254 -0.9652,0.7366 -0.381,0.4572 -0.5842,1.143 z m 17.95776,8.3566 q -1.905,0 -3.4798,-0.9144 -1.5494,-0.9398 -2.4638,-2.4892 -0.9144,-1.5748 -0.9144,-3.5052 0,-1.9304 0.9144,-3.4798 0.9398,-1.5748 2.5146,-2.4892 1.6002,-0.9144 3.556,-0.9144 0.9398,0 1.8034,0.2286 0.8636,0.2286 1.6256,0.6604 v -5.0546 l 4.1148,-0.635 v 18.415 h -4.064 v -0.9906 q -1.6002,1.1684 -3.6068,1.1684 z m 0.7112,-3.5052 q 0.8636,0 1.5748,-0.254 0.7112,-0.2794 1.27,-0.8128 v -4.699 q -0.5334,-0.508 -1.27,-0.762 -0.7366,-0.2794 -1.5748,-0.2794 -0.9906,0 -1.8034,0.4572 -0.7874,0.4318 -1.27,1.2192 -0.4572,0.762 -0.4572,1.7272 0,0.9652 0.4572,1.7526 0.4826,0.762 1.27,1.2192 0.8128,0.4318 1.8034,0.4318 z"
         id="path6" />
      <path
         style="font-weight:900;font-family:'Red Hat Display';-inkscape-font-specification:'Red Hat Display Heavy';fill:#00efff;fill-opacity:1"
         d="m 133.42416,164.40988 q -2.159,0 -4.2672,-0.7874 -2.1082,-0.7874 -3.7592,-2.1844 l 2.4384,-3.175 q 1.6256,1.3208 2.9972,1.905 1.3716,0.5588 2.921,0.5588 1.016,0 1.7272,-0.2032 0.7112,-0.2032 1.0922,-0.5842 0.381,-0.4064 0.381,-0.9398 0,-0.7366 -0.5588,-1.143 -0.5588,-0.4064 -1.905,-0.635 l -3.9116,-0.6858 q -2.159,-0.381 -3.3274,-1.651 -1.1684,-1.27 -1.1684,-3.2258 0,-1.7272 0.8636,-2.9718 0.889,-1.2446 2.5146,-1.905 1.651,-0.6604 3.9116,-0.6604 1.9812,0 3.9878,0.6858 2.0066,0.6604 3.4798,1.8542 l -2.3114,3.2258 q -2.7432,-2.1082 -5.461,-2.1082 -0.889,0 -1.5494,0.2032 -0.635,0.1778 -0.9906,0.5334 -0.3302,0.3302 -0.3302,0.8128 0,0.6604 0.4826,1.016 0.508,0.3556 1.6256,0.5588 l 3.683,0.6096 q 2.5654,0.4064 3.8862,1.7018 1.3462,1.2954 1.3462,3.3528 0,1.8034 -0.9398,3.1242 -0.9398,1.2954 -2.6924,2.0066 -1.7526,0.7112 -4.1656,0.7112 z m 9.60117,4.9276 v -18.6182 h 4.064 v 0.9906 q 1.6002,-1.1684 3.6068,-1.1684 1.9304,0 3.4798,0.9398 1.5494,0.9144 2.4638,2.4892 0.9144,1.5494 0.9144,3.4798 0,1.9304 -0.9398,3.5052 -0.9144,1.5494 -2.5146,2.4638 -1.5748,0.9144 -3.5306,0.9144 -0.9398,0 -1.8034,-0.2286 -0.8636,-0.2286 -1.6256,-0.6604 v 5.8928 z m 6.9596,-8.4836 q 1.016,0 1.8034,-0.4318 0.7874,-0.4572 1.2446,-1.2192 0.4826,-0.7874 0.4826,-1.7526 0,-0.9652 -0.4826,-1.7272 -0.4572,-0.7874 -1.27,-1.2192 -0.7874,-0.4572 -1.778,-0.4572 -0.8636,0 -1.5748,0.2794 -0.7112,0.254 -1.27,0.7874 v 4.699 q 0.5334,0.4826 1.27,0.762 0.7366,0.2794 1.5748,0.2794 z m 13.9192,3.5306 q -1.4224,0 -2.54,-0.5334 -1.0922,-0.5334 -1.7272,-1.4732 -0.6096,-0.9398 -0.6096,-2.159 0,-1.9304 1.4478,-2.9718 1.4732,-1.0668 4.0894,-1.0668 1.5748,0 3.048,0.381 v -0.6604 q 0,-1.016 -0.6604,-1.4986 -0.635,-0.508 -1.905,-0.508 -0.7874,0 -1.778,0.254 -0.9652,0.254 -2.286,0.8128 l -1.4732,-3.0226 q 1.651,-0.7366 3.175,-1.0922 1.5494,-0.381 3.0988,-0.381 2.794,0 4.3434,1.3462 1.5494,1.3208 1.5494,3.7338 v 8.6106 h -4.064 v -0.8128 q -0.8128,0.5588 -1.7272,0.8128 -0.889,0.2286 -1.9812,0.2286 z m -0.9652,-4.2418 q 0,0.635 0.5588,0.9906 0.5588,0.3556 1.5494,0.3556 0.7366,0 1.3716,-0.1524 0.6604,-0.1524 1.1938,-0.4826 v -1.7272 q -0.5842,-0.1524 -1.1938,-0.2286 -0.6096,-0.0762 -1.2446,-0.0762 -1.0668,0 -1.651,0.3556 -0.5842,0.3302 -0.5842,0.9652 z m 17.67838,4.2672 q -2.0066,0 -3.6322,-0.9144 -1.6002,-0.9144 -2.54,-2.4892 -0.9398,-1.6002 -0.9398,-3.556 0,-1.9812 0.9398,-3.556 0.9398,-1.5748 2.54,-2.4892 1.6256,-0.9398 3.6322,-0.9398 1.651,0 3.1496,0.6604 1.4986,0.635 2.54,1.8288 l -2.5146,2.6162 q -0.7112,-0.8128 -1.4478,-1.1684 -0.7366,-0.381 -1.6256,-0.381 -0.889,0 -1.6002,0.4572 -0.7112,0.4318 -1.1176,1.2192 -0.4064,0.762 -0.4064,1.7526 0,0.9652 0.4064,1.7526 0.4318,0.762 1.1684,1.2192 0.7366,0.4318 1.651,0.4318 0.8382,0 1.5494,-0.3556 0.7112,-0.3556 1.3716,-1.0922 l 2.4384,2.54 q -1.016,1.1684 -2.4892,1.8288 -1.4732,0.635 -3.0734,0.635 z m 13.51275,0 q -2.0574,0 -3.7338,-0.9144 -1.651,-0.9398 -2.6162,-2.5146 -0.9652,-1.5748 -0.9652,-3.5306 0,-1.9558 0.9144,-3.5306 0.9398,-1.5748 2.54,-2.4892 1.6002,-0.9398 3.556,-0.9398 1.9812,0 3.5052,0.9652 1.524,0.9398 2.3876,2.5908 0.889,1.651 0.889,3.7846 v 1.016 h -9.5758 q 0.2794,0.635 0.7366,1.1176 0.4826,0.4826 1.143,0.762 0.6604,0.254 1.4224,0.254 0.8382,0 1.524,-0.254 0.6858,-0.2794 1.1684,-0.762 l 2.7178,2.413 q -1.27,1.0668 -2.6162,1.5494 -1.3208,0.4826 -2.9972,0.4826 z m -3.175,-8.4328 h 5.6134 q -0.2032,-0.6604 -0.635,-1.1176 -0.4064,-0.4826 -0.9652,-0.7366 -0.5588,-0.2794 -1.2192,-0.2794 -0.6858,0 -1.2446,0.254 -0.5588,0.254 -0.9652,0.7366 -0.381,0.4572 -0.5842,1.143 z"
         id="path7" />
    </g>
  </g>
</svg>
