<?xml version="1.0" encoding="UTF-8" standalone="no"?>
<svg
   version="1.1"
   width="1546.6444"
   height="480"
   id="svg82"
   sodipodi:docname="collapsed-space-full.svg"
   inkscape:version="1.3.2 (091e20ef0f, 2023-11-25)"
   xmlns:inkscape="http://www.inkscape.org/namespaces/inkscape"
   xmlns:sodipodi="http://sodipodi.sourceforge.net/DTD/sodipodi-0.dtd"
   xmlns="http://www.w3.org/2000/svg"
   xmlns:svg="http://www.w3.org/2000/svg">
  <defs
     id="defs82" />
  <sodipodi:namedview
     id="namedview82"
     pagecolor="#505050"
     bordercolor="#eeeeee"
     borderopacity="1"
     inkscape:showpageshadow="0"
     inkscape:pageopacity="0"
     inkscape:pagecheckerboard="0"
     inkscape:deskcolor="#505050"
     inkscape:zoom="0.42856358"
     inkscape:cx="784.01435"
     inkscape:cy="325.50596"
     inkscape:window-width="1280"
     inkscape:window-height="731"
     inkscape:window-x="0"
     inkscape:window-y="0"
     inkscape:window-maximized="1"
     inkscape:current-layer="g82" />
  <g
     id="g82"
     transform="matrix(0.85714286,0,0,0.85714286,-213.42592,-236.39012)">
    <path
       d="m 669.66822,345.20967 c -86.57483,-31.08406 -195.95543,-23.80201 -251.12754,17.74178 -153.11452,115.29296 -91.60174,274.89528 116.08863,308.58461 -52.4221,0.18981 -76.31042,10.6746 -187.07257,-34.34167 21.6079,83.06247 107.16517,124.91419 131.10735,135.1553 101.60631,39.80141 175.97477,-19.17525 199.16309,-41.35396 55.21873,-51.62123 70.41306,-131.02116 35.52128,-205.78245 -37.00103,-76.28004 -112.69892,-92.61283 -163.5469,-96.53391 l -0.0793,-0.27013 c 72.74001,0.83786 230.44037,48.00488 258.15304,115.82854 4.75802,32.29378 -6.78277,79.9859 -12.91023,100.01896 -11.88643,39.94914 -31.34532,73.77323 -75.17083,116.35351 -63.75764,59.79144 -124.29233,73.98929 -189.26657,75.13357 -15.6526,0.27567 -31.30091,-0.71737 -46.88072,-3.19679 -23.96036,-3.81313 -48.10549,-11.92359 -72.19934,-22.43629 -30.07258,-13.12136 -79.11861,-46.56539 -114.2378,-96.40852 -29.19289,-41.43218 -47.59693,-95.50539 -48.1925,-146.6219 -0.90962,-78.06992 28.54594,-169.97501 96.55249,-225.0259 16.16851,-13.08831 49.76513,-39.24538 97.18159,-55.03266 116.7278,-38.86444 208.42381,33.64214 226.91679,58.18791 z"
       fill="#9e7d35"
       id="path2"
       inkscape:label="ring"
       sodipodi:nodetypes="csccccccccccsssssssc"
       style="fill:#61afef;fill-opacity:1;stroke-width:1.00471" />
    <circle
       style="fill:#000000;stroke-width:1.20582;fill-opacity:1"
       id="path82"
       cx="534.66327"
       cy="545.30493"
       r="117.5"
       inkscape:label="center" />
    <g
       id="text1"
       style="font-weight:bold;font-size:112px;font-family:'Avenir Next LT Pro';-inkscape-font-specification:'Avenir Next LT Pro Bold';fill:#61afef;stroke-width:1.16667"
       aria-label="Collapsed&#10;Space"
       transform="translate(0,-31.360996)">
      <g
         id="g4"
         transform="matrix(2.1096308,0,0,2.1096308,-1246.1124,-537.85027)">
        <path
           style="font-family:'Bear Sans UI Headline';-inkscape-font-specification:'Bear Sans UI Headline Bold'"
           d="m 1044.5543,477.23297 c 0,5.46875 0.9844,10.66406 2.9531,15.53125 1.9688,4.86719 4.7579,9.07813 8.3125,12.6875 3.5547,3.60938 7.9297,6.50781 13.1797,8.58594 5.25,2.13281 10.9375,3.17187 17.0625,3.17187 9.5157,0 17.8282,-2.51562 24.8282,-7.65625 l -10.4454,-15.80468 c -3.9375,3.71875 -8.6953,5.57812 -14.164,5.57812 -4.211,0 -7.9297,-1.03906 -11.211,-3.11719 -3.2812,-2.07812 -5.7421,-4.8125 -7.3828,-8.09375 -1.6406,-3.28125 -2.4609,-6.89062 -2.4609,-10.77343 0,-6.125 1.9141,-11.32032 5.7969,-15.69532 3.8281,-4.32031 8.914,-6.50781 15.2578,-6.50781 5.5781,0 10.2812,1.85938 14.164,5.46875 l 10.4454,-15.80469 c -7.1641,-5.08593 -15.4219,-7.65625 -24.8282,-7.65625 -6.125,0 -11.8125,1.09375 -17.0625,3.17188 -5.25,2.13281 -9.625,4.97656 -13.1797,8.58594 -3.5546,3.60937 -6.3437,7.875 -8.3125,12.74218 -1.9687,4.92188 -2.9531,10.11719 -2.9531,15.58594 z m 70.7656,10.60938 c 0,8.64062 2.8985,15.69531 8.6954,21.16406 5.7968,5.46875 13.3437,8.20312 22.5312,8.20312 9.1875,0 16.7344,-2.73437 22.5859,-8.20312 5.8516,-5.46875 8.8047,-12.52344 8.8047,-21.16406 0,-8.53125 -2.9531,-15.58594 -8.8047,-21.10938 -5.9062,-5.46875 -13.3984,-8.25781 -22.5859,-8.25781 -9.1875,0 -16.7344,2.78906 -22.5312,8.25781 -5.7969,5.52344 -8.6954,12.57813 -8.6954,21.10938 z m 19.1407,0 c 0,-3.99219 1.0937,-7.27344 3.3906,-9.84375 2.2422,-2.51563 5.1406,-3.82813 8.6953,-3.82813 3.5,0 6.3984,1.3125 8.6953,3.82813 2.2969,2.57031 3.4453,5.85156 3.4453,9.84375 0,4.04687 -1.1484,7.38281 -3.4453,9.89843 -2.2969,2.51563 -5.1953,3.77344 -8.6953,3.77344 -3.5547,0 -6.4531,-1.25781 -8.6953,-3.77344 -2.2969,-2.51562 -3.3906,-5.79687 -3.3906,-9.89843 z m 53.1015,27.5625 h 18.7578 v -80.82813 h -18.7578 z m 31.8282,0 h 18.7578 v -80.82813 h -18.7578 z m 28.9296,-15.58594 c 0,5.14062 1.75,9.1875 5.3594,12.25 3.5547,3.0625 8.0938,4.53906 13.5625,4.53906 3.7735,0 7.2188,-0.65625 10.336,-1.96875 3.1171,-1.3125 5.6328,-3.22656 7.4921,-5.79687 l 2.2969,6.5625 h 16.5156 v -31.39063 c 0,-8.42187 -2.3515,-14.82031 -6.9453,-19.08594 -4.5937,-4.26562 -11.4843,-6.45312 -20.5625,-6.45312 -8.8593,0 -16.1875,2.1875 -21.9843,6.50781 l 7.2734,12.03125 c 3.9375,-3.00781 8.2031,-4.53906 12.8516,-4.53906 7.1093,0 10.664,3.17187 10.664,9.51562 v 2.51563 l -2.1328,-0.60156 c -4.8672,-1.3125 -9.2422,-2.02344 -13.125,-2.02344 -1.9687,0 -3.8281,0.16406 -5.5781,0.49219 -5.1953,1.03906 -9.1875,3.11718 -11.9219,6.23437 -2.7344,3.17188 -4.1016,6.89063 -4.1016,11.21094 z m 19.7422,-1.64063 c 0,-2.84375 1.3672,-4.8125 4.1563,-5.85156 1.0937,-0.4375 2.4062,-0.60156 3.8828,-0.60156 2.1875,0 4.8672,0.49219 7.9297,1.42187 l 1.039,0.38282 v 1.3125 c 0,2.78906 -0.9843,5.03125 -2.8984,6.78125 -1.9141,1.75 -4.2656,2.625 -7.0547,2.625 -2.0781,0 -3.7734,-0.54688 -5.0859,-1.64063 -1.3125,-1.09375 -1.9688,-2.57031 -1.9688,-4.42969 z m 47.3047,42.21875 h 18.7578 v -29.64062 c 4.3203,3.9375 9.6797,5.85156 16.0782,5.85156 7.4375,0 13.5078,-2.57031 18.3203,-7.76562 4.8125,-5.14063 7.2187,-12.25 7.2187,-21.27344 0,-6.01563 -1.1484,-11.26563 -3.4453,-15.75 -2.2969,-4.42969 -5.3047,-7.76563 -9.1328,-10.00781 -3.8281,-2.1875 -8.1484,-3.33594 -12.9609,-3.33594 -6.9454,0 -12.6329,2.29687 -17.0079,6.78125 l -1.3125,-5.35938 h -16.5156 z m 17.2266,-52.82812 c 0,-4.04688 1.0937,-7.27344 3.3906,-9.73438 2.2422,-2.40625 5.1406,-3.66406 8.6406,-3.66406 3.5,0 6.3438,1.25781 8.586,3.66406 2.2422,2.46094 3.3906,5.6875 3.3906,9.73438 0,4.04687 -1.1484,7.27344 -3.3906,9.67969 -2.2422,2.46093 -5.086,3.66406 -8.586,3.66406 -3.5,0 -6.3984,-1.20313 -8.6406,-3.66406 -2.2969,-2.40625 -3.3906,-5.63282 -3.3906,-9.67969 z m 48.125,21.4375 c 6.0156,5.46875 14.875,8.20312 26.6328,8.20312 7.3828,0 13.125,-1.64062 17.2266,-4.97656 4.1015,-3.33594 6.1796,-7.65625 6.1796,-12.90625 0,-2.625 -0.4921,-4.97656 -1.4218,-6.94531 -0.9844,-1.96875 -2.1875,-3.55469 -3.6641,-4.64844 -1.5312,-1.09375 -3.1719,-2.07812 -4.9766,-2.89844 -1.8593,-0.76562 -3.664,-1.42187 -5.4687,-1.91406 -1.8047,-0.49219 -3.4453,-0.98437 -4.9219,-1.47656 -1.5312,-0.4375 -2.7344,-1.03906 -3.664,-1.75 -0.9844,-0.71094 -1.4219,-1.58594 -1.4219,-2.67969 0,-1.47656 0.4922,-2.625 1.5859,-3.44531 1.0938,-0.76563 2.625,-1.20313 4.5938,-1.20313 1.75,0 3.664,0.4375 5.8515,1.25782 2.1875,0.875 3.9375,1.91406 5.3047,3.11718 l 8.4219,-11.64843 c -2.0781,-1.80469 -5.0859,-3.33594 -8.9688,-4.64844 -3.9375,-1.3125 -8.1484,-1.96875 -12.6328,-1.96875 -7.4922,0 -13.289,1.75 -17.4453,5.14062 -4.1562,3.44532 -6.2344,7.92969 -6.2344,13.50782 0,2.73437 0.4375,5.08593 1.3672,7.05468 0.875,2.02344 2.0782,3.60938 3.5547,4.70313 1.4219,1.09375 3.0625,2.02344 4.8125,2.78906 1.75,0.76563 3.5,1.36719 5.25,1.80469 1.75,0.4375 3.336,0.875 4.8125,1.3125 1.4219,0.4375 2.625,1.03906 3.5547,1.69531 0.875,0.71094 1.3672,1.58594 1.3672,2.625 0,1.47656 -0.6563,2.625 -1.8594,3.5 -1.2031,0.875 -2.9531,1.25781 -5.1406,1.25781 -5.3594,0 -10.0078,-2.35156 -14.0547,-7.10937 z m 56.7109,-21.16406 c 0,8.75 2.9531,15.80468 8.9141,21.21875 5.9062,5.46875 13.9453,8.14843 24.0078,8.14843 9.3516,0 17.0625,-2.625 23.0781,-7.875 l -12.414,-10.11718 c -3.0625,3.0625 -6.7813,4.53906 -11.1563,4.53906 -3.5,0 -6.3437,-0.92969 -8.5312,-2.84375 -2.1875,-1.85938 -3.6094,-4.59375 -4.3204,-8.09375 h 40.5782 v -4.26563 c 0,-9.29687 -2.7891,-16.67968 -8.2578,-22.03906 -5.5235,-5.35937 -12.6329,-8.03906 -21.3829,-8.03906 -8.914,0 -16.2421,2.78906 -21.9296,8.25781 -5.7422,5.52344 -8.586,12.57813 -8.586,21.10938 z m 19.6875,-6.07032 c 0.6563,-3.17187 1.8594,-5.63281 3.7188,-7.38281 1.8593,-1.75 4.2109,-2.625 7.1093,-2.625 3.1719,0 5.6875,0.92969 7.5469,2.67969 1.8594,1.80469 3.0078,4.26562 3.5,7.32812 z m 46.6485,5.79688 c 0,9.02344 2.3515,16.13281 7.164,21.27344 4.8125,5.19531 10.9375,7.76562 18.375,7.76562 7.1094,0 12.961,-2.35156 17.5,-7.16406 l 1.75,5.96094 h 15.4766 v -80.82813 h -18.7031 v 29.69531 c -4.4297,-3.82812 -9.7891,-5.79687 -16.0235,-5.79687 -4.8672,0 -9.1875,1.14844 -13.0156,3.33594 -3.8281,2.24218 -6.8359,5.57812 -9.1328,10.00781 -2.2969,4.48437 -3.3906,9.73437 -3.3906,15.75 z m 19.1406,0 c 0,-4.04688 1.0937,-7.27344 3.3359,-9.73438 2.1875,-2.40625 5.0313,-3.66406 8.5313,-3.66406 3.5,0 6.3984,1.25781 8.6953,3.66406 2.2969,2.46094 3.4453,5.6875 3.4453,9.73438 0,4.04687 -1.1484,7.27344 -3.4453,9.67969 -2.2969,2.46093 -5.1953,3.66406 -8.6953,3.66406 -3.4453,0 -6.2891,-1.20313 -8.5313,-3.66406 -2.2422,-2.46094 -3.3359,-5.6875 -3.3359,-9.67969 z"
           id="path3" />
        <path
           style="font-family:'Bear Sans UI Headline';-inkscape-font-specification:'Bear Sans UI Headline Bold'"
           d="m 1045.8721,607.98429 c 7.9844,7.65625 18.4844,11.42969 31.5,11.42969 2.7344,0 5.3594,-0.27344 7.9844,-0.875 2.625,-0.54687 5.1406,-1.47656 7.5469,-2.78906 2.4062,-1.3125 4.4843,-2.89844 6.3437,-4.75781 1.8047,-1.85938 3.2266,-4.15625 4.3203,-6.94532 1.0938,-2.73437 1.6406,-5.79687 1.6406,-9.13281 0,-2.95312 -0.4921,-5.63281 -1.4218,-7.98437 -0.9297,-2.29688 -2.3516,-4.375 -4.211,-6.125 -1.914,-1.75 -4.0468,-3.22657 -6.4531,-4.53907 -2.4062,-1.25781 -5.25,-2.51562 -8.6406,-3.71875 -4.5938,-1.58593 -7.9844,-3.11718 -10.1719,-4.64843 -2.1875,-1.47657 -3.2266,-3.28125 -3.2266,-5.35938 0,-1.96875 0.875,-3.60937 2.6797,-4.86719 1.8047,-1.25781 3.9375,-1.91406 6.4532,-1.91406 4.8125,0 9.5156,2.02344 14.0546,6.07031 l 11.2657,-13.17968 c -7.875,-6.17969 -16.6797,-9.29688 -26.5235,-9.29688 -4.8672,0 -9.4609,1.03906 -13.7812,3.0625 -4.375,2.07813 -7.9297,5.03125 -10.7188,8.85938 -2.789,3.82812 -4.1562,8.14843 -4.1562,12.85156 0,2.40625 0.3828,4.64844 1.1484,6.72656 0.7656,2.07813 1.8047,3.82813 3.1172,5.35938 1.2578,1.53125 2.8438,2.89843 4.7578,4.21093 1.8594,1.3125 3.8281,2.35157 5.7969,3.22657 1.9687,0.875 4.2109,1.69531 6.6172,2.46093 4.2656,1.3125 7.3281,2.67969 9.1875,3.99219 1.8594,1.36719 2.789,3.33594 2.789,5.85156 0,2.24219 -0.9843,3.99219 -2.8984,5.19532 -1.9141,1.25781 -4.1562,1.85937 -6.7266,1.85937 -6.1796,0 -11.7031,-2.78906 -16.5156,-8.36719 z m 71.0938,34.61719 h 18.7578 v -29.64062 c 4.3203,3.9375 9.6797,5.85156 16.0781,5.85156 7.4375,0 13.5078,-2.57031 18.3203,-7.76563 4.8125,-5.14062 7.2188,-12.25 7.2188,-21.27343 0,-6.01563 -1.1485,-11.26563 -3.4454,-15.75 -2.2968,-4.42969 -5.3046,-7.76563 -9.1328,-10.00782 -3.8281,-2.1875 -8.1484,-3.33593 -12.9609,-3.33593 -6.9453,0 -12.6328,2.29687 -17.0078,6.78125 l -1.3125,-5.35938 h -16.5156 z m 17.2265,-52.82812 c 0,-4.04688 1.0938,-7.27344 3.3906,-9.73438 2.2422,-2.40625 5.1407,-3.66406 8.6407,-3.66406 3.5,0 6.3437,1.25781 8.5859,3.66406 2.2422,2.46094 3.3906,5.6875 3.3906,9.73438 0,4.04687 -1.1484,7.27343 -3.3906,9.67968 -2.2422,2.46094 -5.0859,3.66407 -8.5859,3.66407 -3.5,0 -6.3985,-1.20313 -8.6407,-3.66407 -2.2968,-2.40625 -3.3906,-5.63281 -3.3906,-9.67968 z m 49.875,12.25 c 0,5.14062 1.75,9.1875 5.3594,12.25 3.5547,3.0625 8.0937,4.53906 13.5625,4.53906 3.7734,0 7.2187,-0.65625 10.3359,-1.96875 3.1172,-1.3125 5.6328,-3.22656 7.4922,-5.79688 l 2.2969,6.5625 h 16.5156 v -31.39062 c 0,-8.42188 -2.3515,-14.82031 -6.9453,-19.08594 -4.5937,-4.26562 -11.4844,-6.45312 -20.5625,-6.45312 -8.8594,0 -16.1875,2.1875 -21.9844,6.50781 l 7.2735,12.03125 c 3.9375,-3.00781 8.2031,-4.53906 12.8515,-4.53906 7.1094,0 10.6641,3.17187 10.6641,9.51562 v 2.51563 l -2.1328,-0.60157 c -4.8672,-1.3125 -9.2422,-2.02343 -13.125,-2.02343 -1.9688,0 -3.8281,0.16406 -5.5781,0.49218 -5.1954,1.03907 -9.1875,3.11719 -11.9219,6.23438 -2.7344,3.17187 -4.1016,6.89062 -4.1016,11.21094 z m 19.7422,-1.64063 c 0,-2.84375 1.3672,-4.8125 4.1563,-5.85156 1.0937,-0.4375 2.4062,-0.60156 3.8828,-0.60156 2.1875,0 4.8672,0.49218 7.9297,1.42187 l 1.039,0.38281 v 1.3125 c 0,2.78907 -0.9844,5.03125 -2.8984,6.78125 -1.9141,1.75 -4.2656,2.625 -7.0547,2.625 -2.0781,0 -3.7734,-0.54687 -5.0859,-1.64062 -1.3125,-1.09375 -1.9688,-2.57031 -1.9688,-4.42969 z m 44.3516,-10.33594 c 0,5.6875 1.3125,10.71875 3.9375,15.20313 2.625,4.48437 6.289,7.98437 10.9375,10.44531 4.5937,2.51563 9.789,3.71875 15.5312,3.71875 7.7656,0 14.6016,-2.02344 20.4531,-6.07031 l -10.2265,-14.05469 c -1.2031,1.3125 -2.625,2.29688 -4.2656,3.00781 -1.6407,0.71094 -3.336,1.03907 -5.0313,1.03907 -3.7187,0 -6.6719,-1.20313 -8.8594,-3.60938 -2.2422,-2.40625 -3.3359,-5.63281 -3.3359,-9.67969 0,-4.04687 1.0937,-7.21875 3.3359,-9.625 2.1875,-2.40625 5.1407,-3.60937 8.8594,-3.60937 3.8281,0 6.9453,1.36719 9.2969,4.04687 l 10.3359,-14.16406 c -3.0625,-2.02344 -6.2344,-3.55469 -9.4062,-4.53906 -3.1719,-0.98438 -6.8907,-1.47656 -11.1563,-1.47656 -5.7422,0 -10.9375,1.25781 -15.5312,3.77343 -4.6485,2.51563 -8.3125,5.96094 -10.9375,10.44532 -2.625,4.48437 -3.9375,9.57031 -3.9375,15.14843 z m 54.6875,0 c 0,8.75 2.9531,15.80469 8.914,21.21875 5.9063,5.46875 13.9453,8.14844 24.0078,8.14844 9.3516,0 17.0625,-2.625 23.0782,-7.875 l -12.4141,-10.11719 c -3.0625,3.0625 -6.7812,4.53907 -11.1562,4.53907 -3.5,0 -6.3438,-0.92969 -8.5313,-2.84375 -2.1875,-1.85938 -3.6094,-4.59375 -4.3203,-8.09375 h 40.5781 v -4.26563 c 0,-9.29687 -2.789,-16.67969 -8.2578,-22.03906 -5.5234,-5.35938 -12.6328,-8.03906 -21.3828,-8.03906 -8.9141,0 -16.2422,2.78906 -21.9297,8.25781 -5.7422,5.52344 -8.5859,12.57812 -8.5859,21.10937 z m 19.6875,-6.07031 c 0.6562,-3.17187 1.8593,-5.63281 3.7187,-7.38281 1.8594,-1.75 4.211,-2.625 7.1094,-2.625 3.1719,0 5.6875,0.92969 7.5469,2.67969 1.8593,1.80468 3.0078,4.26562 3.5,7.32812 z"
           id="path4" />
      </g>
    </g>
  </g>
</svg>
